Coordinates
version=1
nRows=27
nColumns=12
inDegrees=yes

Units are S.I. units (second, meters, Newtons, ...)
Angles are in degrees

endheader
time	SC_y	SC_z	SC_x	AC_y	AC_z	AC_x	GH_y	GH_z	GH_yy	EL_x	PS_y
       0.0               -28.6          23.51          75.48          49.89         -19.67         -1.388          167.8         -6.099          104.8          21.11           79.6
    0.0265               -28.6          23.51          75.47          49.89         -19.67         -1.387          167.7         -6.095          104.8          21.12          79.59
     0.053               -28.6          23.51          75.46          49.89         -19.67         -1.387          167.7         -6.091          104.8          21.13          79.58
   0.07951               -28.6          23.51          75.45          49.89         -19.66         -1.386          167.7         -6.087          104.7          21.15          79.57
     0.106               -28.6          23.51          75.44          49.88         -19.66         -1.386          167.6         -6.082          104.7          21.17          79.56
    0.1325              -28.61           23.5          75.43          49.88         -19.66         -1.385          167.6         -6.077          104.7          21.19          79.55
     0.159              -28.61           23.5          75.41          49.88         -19.66         -1.385          167.5         -6.072          104.6          21.21          79.54
    0.1855              -28.61           23.5           75.4          49.88         -19.66         -1.384          167.5         -6.066          104.6          21.23          79.53
     0.212              -28.61           23.5          75.38          49.88         -19.66         -1.383          167.4          -6.06          104.6          21.25          79.51
    0.2385              -28.61           23.5          75.37          49.88         -19.66         -1.382          167.4         -6.054          104.5          21.28           79.5
     0.265              -28.61           23.5          75.35          49.88         -19.65         -1.382          167.3         -6.047          104.5           21.3          79.48
    0.2915              -28.61           23.5          75.33          49.88         -19.65         -1.381          167.2         -6.039          104.5          21.33          79.47
     0.318              -28.61           23.5          75.31          49.88         -19.65          -1.38          167.2         -6.031          104.4          21.36          79.45
    0.3445              -28.61           23.5          75.29          49.87         -19.65         -1.379          167.1         -6.023          104.4          21.39          79.43
     0.371              -28.61          23.49          75.26          49.87         -19.64         -1.378          167.0         -6.013          104.3          21.43          79.41
    0.3975              -28.61          23.49          75.23          49.87         -19.64         -1.377          166.9         -6.003          104.2          21.47          79.38
     0.424              -28.61          23.49          75.21          49.87         -19.64         -1.375          166.8         -5.992          104.2          21.51          79.36
    0.4505              -28.61          23.49          75.17          49.87         -19.64         -1.374          166.7          -5.98          104.1          21.56          79.33
     0.477              -28.62          23.49          75.14          49.87         -19.63         -1.372          166.6         -5.967          104.0          21.61           79.3
    0.5035              -28.62          23.48           75.1          49.86         -19.63         -1.371          166.5         -5.953          103.9          21.66          79.27
      0.53              -28.62          23.48          75.06          49.86         -19.62         -1.369          166.3         -5.937          103.9          21.72          79.23
    0.5566              -28.62          23.48          75.02          49.86         -19.62         -1.367          166.2         -5.919          103.8          21.79          79.19
    0.5831              -28.62          23.48          74.97          49.86         -19.61         -1.364          166.0           -5.9          103.6          21.86          79.15
    0.6096              -28.62          23.47          74.91          49.85         -19.61         -1.362          165.8         -5.879          103.5          21.94           79.1
    0.6361              -28.63          23.47          74.85          49.85          -19.6         -1.359          165.6         -5.855          103.4          22.03          79.04
    0.6626              -28.63          23.47          74.78          49.84         -19.59         -1.356          165.3         -5.829          103.2          22.13          78.98
    0.6891              -28.63          23.46           74.7          49.84         -19.59         -1.353          165.1         -5.799          103.1          22.24          78.92
